<svg xmlns="http://www.w3.org/2000/svg" width="256" height="256"><path fill="#1976D2" fill-opacity=".02" fill-rule="evenodd" d="M0 128.004v128.004l128.25-.254 128.25-.254.254-127.75L257.008 0H0zm.485.496c0 70.4.119 99.053.265 63.672s.146-92.98 0-128S.485 58.1.485 128.5"/><path fill="#1976D2" fill-opacity=".1" fill-rule="evenodd" d="M108 1.068C91.414 3.553 66.641 14.095 52.5 24.687 27.058 43.743 10.473 69.111 2.935 100.5c-1.056 4.4-1.924 8.338-1.928 8.75s38.355.799 85.243.859 87.95.443 91.25.853c3.3.409-35.012.81-85.139.891L1.223 112l-.592 3.25c-.759 4.173.16 26.305 1.443 34.75.544 3.575 1.662 8.863 2.485 11.75L6.056 167H90.69l5.997 3.876c11.381 7.356 12.264 11.259 12.293 54.289l.02 29.664 7.658.718c15.504 1.453 36.976-1.025 51.692-5.965 40.507-13.597 71.223-45.914 83.183-87.516 5.412-18.827 6.418-40.875 2.645-58.023-2.344-10.658-7.577-25.876-11.734-34.127-4.693-9.314-15.046-23.513-22.881-31.379-21.294-21.378-46.545-34.083-74.537-37.502-9.744-1.19-28.976-1.173-37.026.033M.3 121c0 3.025.187 4.263.416 2.75s.229-3.987 0-5.5S.3 117.975.3 121"/><path fill="#1976D2" fill-opacity=".057" fill-rule="evenodd" d="M111.5.968C75.839 6.07 42.473 26.721 22.384 56.125 14.655 67.439 4.33 92.951 2.475 105.319L1.773 110h95.054c62.291 0 95.268.345 95.673 1 .356.575-.681 1.053-2.441 1.125-1.682.069-3.509.237-4.059.375s-42.4.306-93 .375L1 113v10l55.75.076c30.663.042 58.793.011 62.513-.068 5.265-.111 7.922.394 12 2.285 7.276 3.372 13.825 9.515 17.472 16.386l3.089 5.821.11 49.5c.06 27.225.375 50.963.699 52.75s1.174 3.25 1.888 3.25c3.424 0 21.235-6.669 31.979-11.974 14.508-7.162 22.417-13.027 34.063-25.257 48.586-51.024 46.745-131.042-4.135-179.683-18.352-17.545-40.217-29.087-63.614-33.582C142.96.611 119.97-.243 111.5.968"/><path fill="#1976D2" fill-opacity=".175" fill-rule="evenodd" d="M116.418 1.131C95.007 2.659 68.669 12.879 51 26.515 39.646 35.278 18 59.94 18 64.114c0 .507 32 .89 74.75.896l74.75.01 5.237 2.438c7.115 3.312 14.54 10.491 17.405 16.828L192.5 89.5l.287 73.75c.157 40.563.649 73.75 1.093 73.75 2.381 0 15.962-11.128 25.295-20.726 11.504-11.832 17.837-20.754 23.863-33.616 8.638-18.44 12.031-33.677 12.059-54.158.05-35.997-12.537-66.069-38.193-91.248-11.455-11.241-18.467-16.318-31.404-22.736C162.592 3.151 142.543-.733 116.418 1.131"/></svg>